<svg xmlns="http://www.w3.org/2000/svg" version="1.1" xmlns:xlink="http://www.w3.org/1999/xlink" width="1000" height="1000"><style>
    #light-icon {
      display: inline;
    }
    #dark-icon {
      display: none;
    }

    @media (prefers-color-scheme: dark) {
      #light-icon {
        display: none;
      }
      #dark-icon {
        display: inline;
      }
    }
  </style><g id="light-icon"><svg xmlns="http://www.w3.org/2000/svg" version="1.1" xmlns:xlink="http://www.w3.org/1999/xlink" width="1000" height="1000"><g clip-path="url(#SvgjsClipPath1024)"><rect width="1000" height="1000" fill="#ffffff"></rect><g transform="matrix(5,0,0,5,0,0)"><svg xmlns="http://www.w3.org/2000/svg" version="1.1" xmlns:xlink="http://www.w3.org/1999/xlink" viewBox="0 0 200 200" width="200" height="200"><rect width="200" height="200" fill="url('#gradient')"></rect><defs><linearGradient id="gradient" gradientTransform="rotate(45 0.5 0.5)"><stop offset="0%" stop-color="#343434"></stop><stop offset="100%" stop-color="#343434"></stop></linearGradient><clipPath id="SvgjsClipPath1024"><rect width="1000" height="1000" x="0" y="0" rx="350" ry="350"></rect></clipPath></defs><g><g fill="#e4841d" transform="matrix(9.283516483516484,0,0,9.283516483516484,40.769327641106564,166.00517830377098)" stroke="#c8512e" stroke-width="0"><path d="M4.05-14.22L6.38-9.49L8.70-14.22L12.62-14.22L8.64-7.17L12.72 0L8.77 0L6.38-4.81L3.98 0L0.04 0L4.11-7.17L0.15-14.22L4.05-14.22Z"></path></g></g></svg></g></g></svg></g><g id="dark-icon"><svg xmlns="http://www.w3.org/2000/svg" version="1.1" xmlns:xlink="http://www.w3.org/1999/xlink" width="1000" height="1000"><g clip-path="url(#SvgjsClipPath1025)"><rect width="1000" height="1000" fill="#343434"></rect><g transform="matrix(5,0,0,5,0,0)"><svg xmlns="http://www.w3.org/2000/svg" version="1.1" xmlns:xlink="http://www.w3.org/1999/xlink" viewBox="0 0 200 200" width="200" height="200"><rect width="200" height="200" fill="url('#gradient')"></rect><defs><linearGradient id="gradient" gradientTransform="rotate(45 0.5 0.5)"><stop offset="0%" stop-color="#343434"></stop><stop offset="100%" stop-color="#343434"></stop></linearGradient><clipPath id="SvgjsClipPath1025"><rect width="1000" height="1000" x="0" y="0" rx="350" ry="350"></rect></clipPath></defs><g><g fill="#e4841d" transform="matrix(9.283516483516484,0,0,9.283516483516484,40.769327641106564,166.00517830377098)" stroke="#c8512e" stroke-width="0"><path d="M4.05-14.22L6.38-9.49L8.70-14.22L12.62-14.22L8.64-7.17L12.72 0L8.77 0L6.38-4.81L3.98 0L0.04 0L4.11-7.17L0.15-14.22L4.05-14.22Z"></path></g></g></svg></g></g></svg></g></svg>